<?xml version="1.0"?>
<svg xmlns="http://www.w3.org/2000/svg" xmlns:xlink="http://www.w3.org/1999/xlink" xmlns:svgjs="http://svgjs.com/svgjs" version="1.1" width="512" height="512" x="0" y="0" viewBox="0 0 512 512" style="enable-background:new 0 0 512 512" xml:space="preserve" class=""><g><g xmlns="http://www.w3.org/2000/svg"><path d="m437.02 74.98c-48.353-48.351-112.64-74.98-181.02-74.98s-132.667 26.629-181.02 74.98c-48.351 48.353-74.98 112.64-74.98 181.02s26.629 132.667 74.98 181.02c48.353 48.351 112.64 74.98 181.02 74.98s132.667-26.629 181.02-74.98c48.351-48.353 74.98-112.64 74.98-181.02s-26.629-132.667-74.98-181.02zm-21.214 340.826c-42.686 42.686-99.439 66.194-159.806 66.194s-117.12-23.508-159.806-66.194-66.194-99.439-66.194-159.806 23.508-117.12 66.194-159.806 99.439-66.194 159.806-66.194 117.12 23.508 159.806 66.194 66.194 99.439 66.194 159.806-23.508 117.12-66.194 159.806z" fill="#81ae9d" data-original="#000000" style="" class=""/><path d="m256 58.301c-109.011 0-197.698 88.688-197.698 197.699s88.687 197.699 197.698 197.699 197.698-88.688 197.698-197.699-88.687-197.699-197.698-197.699zm0 232.519c-19.2 0-34.82-15.62-34.82-34.82s15.62-34.82 34.82-34.82 34.82 15.62 34.82 34.82-15.62 34.82-34.82 34.82zm61.156-56.271 87.458-56.173c12.18 23.224 19.084 49.631 19.084 77.624s-6.904 54.4-19.084 77.624l-87.458-56.173c2.364-6.719 3.664-13.935 3.664-21.451 0-7.517-1.3-14.732-3.664-21.451zm71.211-81.393-87.455 56.171c-8.204-7.897-18.473-13.654-29.912-16.376v-103.971c47.603 4.24 89.545 28.448 117.367 64.176zm-147.367-64.176v103.972c-11.439 2.722-21.707 8.478-29.912 16.376l-87.455-56.171c27.822-35.729 69.764-59.937 117.367-64.177zm-133.615 89.396 87.458 56.173c-2.364 6.719-3.664 13.934-3.664 21.451s1.3 14.732 3.664 21.451l-87.458 56.173c-12.179-23.224-19.083-49.631-19.083-77.624s6.904-54.4 19.083-77.624zm16.248 180.468 87.455-56.171c8.204 7.897 18.473 13.654 29.911 16.376v103.971c-47.602-4.24-89.544-28.448-117.366-64.176zm147.367 64.176v-103.971c11.439-2.722 21.707-8.478 29.911-16.376l87.455 56.171c-27.821 35.728-69.763 59.936-117.366 64.176z" fill="#81ae9d" data-original="#000000" style="" class=""/></g></g></svg>
